<?xml version="1.0" encoding="utf-8"?>
<!-- Generator: Adobe Illustrator 16.0.0, SVG Export Plug-In . SVG Version: 6.00 Build 0)  -->
<!DOCTYPE svg PUBLIC "-//W3C//DTD SVG 1.1//EN" "http://www.w3.org/Graphics/SVG/1.1/DTD/svg11.dtd">
<svg version="1.1" id="Layer_1" xmlns="http://www.w3.org/2000/svg" xmlns:xlink="http://www.w3.org/1999/xlink" x="0px" y="0px"
	 width="3000px" height="3000px" viewBox="0 0 3000 3000" enable-background="new 0 0 3000 3000" xml:space="preserve">
<path fill-rule="evenodd" clip-rule="evenodd" fill="#005B7F" d="M1262.1,638.34c228.694-68.466,592.967-49.91,872.602,228.87
	c133.536,133.128,216.777,293.365,249.773,479.084c22.939,129.121,17.049,257.29-16.23,385.071
	c-14.363-9.32-27.652-18.125-41.115-26.651c-155.344-98.375-323.107-166.08-503.17-203.172
	c-56.246-11.587-112.994-20.09-170.295-24.458c-7.442-0.567-11.357-2.627-13.808-10.818
	c-16.063-53.711-51.769-88.217-105.379-103.997c-5.928-1.746-8.013-4.306-8.555-9.981
	c-12.237-128.085-41.028-252.392-85.581-373.059c-43.805-118.643-101.815-229.917-173.718-333.956
	C1265.075,643.031,1263.643,640.71,1262.1,638.34z"/>
<path fill-rule="evenodd" clip-rule="evenodd" fill="#005B7F" d="M2308.127,1784.186c-14.949,9.883-29.754,19.988-44.867,29.613
	c-144.579,92.076-300.684,156.234-468.195,192.467c-58.326,12.616-117.249,21.713-176.805,26.106
	c-27.889,2.057-55.849,3.147-83.762,4.911c-5.334,0.338-7.774-0.92-9.322-6.615c-8.792-32.354-26.513-59.01-53.113-79.498
	c-4.05-3.12-4.864-5.745-3.374-10.58c21.193-68.746,36.762-138.799,47.686-209.871c3.563-23.172,6.217-46.488,8.907-69.782
	c0.515-4.448,2.073-6.359,6.3-7.485c51.471-13.714,86.64-45.629,105.489-95.389c1.751-4.619,3.968-5.957,8.751-5.557
	c50.271,4.204,100.115,11.34,149.64,20.93c140.143,27.135,273.146,74.483,398.886,141.872c38.68,20.73,76.081,43.849,114.067,65.874
	C2308.318,1782.183,2308.222,1783.185,2308.127,1784.186z"/>
<path fill-rule="evenodd" clip-rule="evenodd" fill="#005B7F" d="M1214.495,703.096c10.239,16.007,19.964,30.767,29.253,45.798
	c86.48,139.94,147.683,290.224,181.594,451.17c10.681,50.691,16.54,102.394,24.801,153.603c1.191,7.387-1.146,10.613-8.337,13.488
	c-49.419,19.755-80.408,55.932-93.131,107.558c-1.187,4.815-3.102,6.479-7.785,7.018c-93.952,10.804-185.963,30.734-276.059,59.413
	c-6.406,2.038-9.955,1.378-14.516-3.888c-20.525-23.691-46.23-39.304-76.761-46.805c-2.15-0.528-4.245-1.279-7.044-2.134
	C972.002,1202.621,1054.708,941.531,1214.495,703.096z"/>
<path fill-rule="evenodd" clip-rule="evenodd" fill="#005B7F" d="M1135.657,683.449c-17.407,29.185-35.119,57.566-51.56,86.667
	c-76.416,135.259-130.369,279.019-161.976,431.143c-14.796,71.209-24.722,143.072-28.589,215.721
	c-1.247,23.447-2.04,46.92-2.734,70.392c-0.128,4.307-1.256,6.403-5.478,8.061c-64.416,25.289-101.808,82.792-97.581,151.955
	c0.66,10.803-3.019,14.625-11.143,19.662c-43.068,26.699-85.653,54.179-128.4,81.396c-2.27,1.445-4.484,2.978-6.849,4.553
	C521.216,1359.354,699.001,876.584,1135.657,683.449z"/>
<path fill-rule="evenodd" clip-rule="evenodd" fill="#005B7F" d="M1263.293,2365.207c16.007-24.809,32.108-48.887,47.281-73.535
	c13.608-22.107,26.391-44.734,39.078-67.39c2.726-4.866,5.684-5.95,10.718-5.282c70.557,9.35,137.253-31.332,161.22-98.455
	c1.762-4.932,3.869-6.857,9.387-7.009c243.884-6.674,473.229-67.691,687.273-185.04c31.945-17.514,62.68-37.236,93.979-55.928
	c1.813-1.084,3.675-2.09,6.116-2.418c-89.311,192.979-227.963,338.646-418.049,434.331
	C1673.828,2418.48,1431.554,2414.761,1263.293,2365.207z"/>
<path fill-rule="evenodd" clip-rule="evenodd" fill="#005B7F" d="M1451.066,1651.719c-6.378,40.789-11.176,81.728-19.485,121.94
	c-9.675,46.82-22.429,93.004-33.825,139.469c-0.996,4.061-2.055,6.927-7.637,6.785c-70.128-1.778-119.845,29.515-149.489,92.969
	c-0.408,0.874-0.967,1.678-1.516,2.614c-65.836-11.643-130.314-27.863-193.521-49.041c-2.767-0.927-5.941-3.908-6.852-6.628
	c-19.502-58.229-34.725-117.595-46.673-177.821c-1.083-5.462,2.468-6.079,5.853-7.643c42.817-19.774,71.223-52.129,84.518-97.467
	c5.549-18.922,6.964-38.307,4.359-57.825c-0.668-5.011,1.605-5.901,5.242-7.038c52.168-16.295,105.014-29.95,158.811-39.61
	c30.672-5.508,61.56-9.809,92.327-14.798c6.574-1.066,10.334-0.201,13.442,7.238c16.942,40.547,46.378,68.584,87.588,84.113
	C1445.827,1649.587,1447.423,1650.26,1451.066,1651.719z"/>
<path fill-rule="evenodd" clip-rule="evenodd" fill="#005B7F" d="M1120.748,2311.721
	c-193.474-91.952-336.371-234.545-431.133-428.694c3.726,2.036,5.592,2.943,7.346,4.031
	c87.887,54.512,180.258,99.839,277.461,135.208c4.808,1.751,7.101,4.529,8.761,9.047c35.588,96.85,80.785,188.999,135.472,276.496
	C1119.437,2309.059,1120.053,2310.414,1120.748,2311.721z"/>
<path fill-rule="evenodd" clip-rule="evenodd" fill="#005B7F" d="M1284.69,2187.522c-24.503,40.151-49.046,80.367-74.457,122.007
	c-54.529-81.041-99.232-164.838-136.162-254.186c18.812,4.936,36.419,10.082,54.278,14.127c31.594,7.156,63.334,13.673,95.031,20.37
	c4.208,0.889,7.62,1.335,8.654,7.046c6.323,34.913,23.267,63.927,49.895,87.326
	C1282.477,2184.694,1282.881,2185.338,1284.69,2187.522z"/>
<path fill-rule="evenodd" clip-rule="evenodd" fill="#005B7F" d="M703.495,1800.979c39.364-24.626,76.979-48.158,114.846-71.847
	c2.7,2.953,4.516,4.911,6.3,6.897c22.58,25.126,50.236,41.464,83.497,47.899c5.112,0.989,7.67,2.678,8.991,8.466
	c10.135,44.438,20.854,88.741,31.366,133.093c0.321,1.354,0.363,2.775,0.698,5.491
	C863.098,1895.671,782.276,1852.942,703.495,1800.979z"/>
<circle fill-rule="evenodd" clip-rule="evenodd" fill="#0099FF" cx="937.398" cy="1637.556" r="102.292"/>
<circle fill-rule="evenodd" clip-rule="evenodd" fill="#0099FF" cx="1496.397" cy="1509.556" r="102.292"/>
<circle fill-rule="evenodd" clip-rule="evenodd" fill="#0099FF" cx="1380.397" cy="2071.556" r="102.292"/>
</svg>
